<?xml version="1.0" ?>
<!DOCTYPE svg  PUBLIC '-//W3C//DTD SVG 1.1//EN'  'http://www.w3.org/Graphics/SVG/1.1/DTD/svg11.dtd'>
<!-- Uploaded to: SVG Repo, www.svgrepo.com, Generator: SVG Repo Mixer Tools -->
<svg fill="#000000" width="800px" height="800px" viewBox="0 0 64 64" enable-background="new 0 0 64 64" id="Layer_1" version="1.1" xml:space="preserve" xmlns="http://www.w3.org/2000/svg" xmlns:xlink="http://www.w3.org/1999/xlink">
<g>
<path d="M28.462,49.718c-1.202,0-2.322-0.447-3.151-1.26c-1.051-1.028-1.5-2.594-1.172-4.087c0.311-1.416,1.245-2.498,2.563-2.968   c1.803-0.643,3.784-0.14,4.983,1.234c0.852,0.977,1.237,2.295,1.057,3.618C32.467,48.262,30.667,49.718,28.462,49.718z    M28.326,43.117c-0.314,0-0.635,0.057-0.952,0.17c-0.896,0.32-1.188,1.085-1.282,1.513c-0.181,0.825,0.056,1.679,0.617,2.229   c0.454,0.445,1.077,0.689,1.753,0.689c1.024,0,2.143-0.596,2.298-1.734c0.104-0.761-0.103-1.483-0.581-2.032   C29.715,43.421,29.04,43.117,28.326,43.117z"/>
</g>
<g>
<path d="M41.669,49.718c-1.203,0-2.322-0.447-3.152-1.26c-1.051-1.029-1.5-2.595-1.172-4.087c0.311-1.416,1.245-2.498,2.563-2.968   c1.802-0.644,3.783-0.14,4.983,1.234c0.853,0.977,1.237,2.295,1.057,3.618C45.673,48.262,43.874,49.718,41.669,49.718z    M41.532,43.117c-0.314,0-0.635,0.057-0.952,0.17c-0.896,0.32-1.188,1.085-1.282,1.513c-0.181,0.825,0.056,1.679,0.617,2.229   c0.454,0.445,1.077,0.689,1.754,0.689c1.023,0,2.142-0.596,2.297-1.734c0.104-0.761-0.103-1.483-0.581-2.032   C42.921,43.421,42.246,43.117,41.532,43.117z"/>
</g>
<g>
<path d="M37.921,39.828c-1.068,0-2.127-0.026-3.093-0.05l-1.418-0.029c-2.82-0.038-7.541-0.102-9.318-2.541   c-0.916-1.261-1.626-3.712-1.81-6.247c-0.092-1.257-0.122-2.609-0.15-3.917c-0.105-4.737-0.215-9.636-3.169-10.481   c-1.206-0.344-2.195-0.3-3.688-0.236l-0.246,0.011c-0.533,0.025-1.019-0.404-1.042-0.957c-0.023-0.552,0.404-1.018,0.956-1.042   l0.245-0.011c1.568-0.068,2.809-0.123,4.324,0.312c2.326,0.665,3.45,2.574,4.012,5.039c0.392-0.004,1.029-0.013,1.838-0.023   c4.072-0.055,12.547-0.167,15.883-0.089c0.501,0.011,0.99,0.016,1.463,0.02c3.554,0.033,7.229,0.067,7.306,4.05   c0.063,3.361-1.077,7.377-1.429,8.529c-0.094,0.309-0.182,0.611-0.268,0.906c-0.405,1.388-0.787,2.698-1.572,3.912   c-0.889,1.373-2.344,2.259-4.21,2.563C41.172,39.767,39.536,39.828,37.921,39.828z M23.854,21.674   c0.195,1.684,0.236,3.515,0.276,5.325c0.028,1.283,0.058,2.61,0.146,3.816c0.154,2.122,0.743,4.266,1.433,5.215   c1.188,1.629,5.605,1.689,7.729,1.718l1.441,0.029c2.342,0.059,5.257,0.132,7.334-0.206c1.293-0.21,2.279-0.79,2.852-1.675   c0.627-0.969,0.953-2.088,1.332-3.385c0.088-0.303,0.178-0.613,0.275-0.93c0.679-2.226,1.388-5.471,1.341-7.907   c-0.034-1.799-1.102-2.049-5.324-2.088c-0.482-0.004-0.98-0.009-1.491-0.021c-3.296-0.076-11.749,0.036-15.81,0.089   C24.766,21.663,24.243,21.669,23.854,21.674z"/>
</g>
</svg>